# AST/ASF file generated using VICON BodyLanguage
# -----------------------------------------------
:version 1.10
:name VICON
:units
  mass 1.0
  length 0.45
  angle deg
:documentation
   .ast/.asf automatically generated from VICON data using
   VICON BodyBuilder and BodyLanguage model FoxedUp or BRILLIANT.MOD
:root
   order TX TY TZ RX RY RZ
   axis XYZ
   position 0 0 0  
   orientation 0 0 0 
:bonedata
  begin
     id 1 
     name lhipjoint
     direction 0.602128 -0.715006 0.355257 
     length 2.21237 
     axis 0 0 0  XYZ
  end
  begin
     id 2 
     name lfemur
     direction 0.34202 -0.939693 0  
     length 6.71649  
     axis 0 0 20  XYZ
    dof rx ry rz
    limits (-160.0 20.0)
           (-70.0 70.0)
           (-60.0 70.0)
  end
  begin
     id 3 
     name ltibia
     direction 0.34202 -0.939693 0   
     length 6.97123   
     axis 0 0 20   XYZ
    dof rx
    limits (-10.0 170.0)
  end
  begin
     id 4 
     name lfoot
     direction 0.0655697 -0.180151 0.981451   
     length 1.80924   
     axis -90 7.62852e-016 20   XYZ
    dof rx rz
    limits (-45.0 90.0)
           (-70.0 20.0)
  end
  begin
     id 5 
     name ltoes
     direction 1.53545e-011 -4.21827e-011 1   
     length 0.916331   
     axis -90 7.62852e-016 20   XYZ
    dof rx
    limits (-90.0 20.0)
  end
  begin
     id 6 
     name rhipjoint
     direction -0.625414 -0.698792 0.347201   
     length 2.2637  
     axis 0 0 0  XYZ 
  end
  begin
     id 7 
     name rfemur
     direction -0.34202 -0.939693 0   
     length 7.07595   
     axis 0 0 -20   XYZ
    dof rx ry rz
    limits (-160.0 20.0)
           (-70.0 70.0)
           (-70.0 60.0)
  end
  begin
     id 8 
     name rtibia
     direction -0.34202 -0.939693 0   
     length 7.22924   
     axis 0 0 -20   XYZ
    dof rx
    limits (-10.0 170.0)
 end
 begin
     id 9 
     name rfoot
     direction -0.0766747 -0.210662 0.974547   
     length 1.98482  
     axis -90 -7.62852e-016 -20   XYZ
    dof rx rz
    limits (-45.0 90.0)
           (-20.0 70.0)
  end
  begin
     id 10 
     name rtoes
     direction -1.53532e-011 -4.21867e-011 1   
     length 0.999842   
     axis -90 -7.62852e-016 -20   XYZ
    dof rx
    limits (-90.0 20.0)
  end
  begin
     id 11 
     name lowerback
     direction -0.0224668 0.997354 -0.0691422   
     length 2.09945   
     axis 0 0 0   XYZ
    dof rx ry rz
    limits (-20.0 45.0)
           (-30.0 30.0)
           (-30.0 30.0)
  end
  begin
     id 12 
     name upperback
     direction 0.0134698 0.998451 -0.0539888   
     length 2.09758   
     axis 0 0 0   XYZ
    dof rx ry rz
    limits (-20.0 45.0)
           (-30.0 30.0)
           (-30.0 30.0)
  end
  begin
     id 13 
     name thorax
     direction 0.0241905 0.99948 -0.0213333   
     length 2.10428   
     axis 0 0 0   XYZ
    dof rx ry rz
    limits (-20.0 45.0)
           (-30.0 30.0)
           (-30.0 30.0)
  end
  begin
     id 14 
     name lowerneck
     direction -0.00866847 0.995978 0.0891737   
     length 1.3959   
     axis 0 0 0   XYZ
    dof rx ry rz
    limits (-20.0 45.0)
           (-30.0 30.0)
           (-30.0 30.0)
  end
  begin
     id 15 
     name upperneck
     direction 0.0680679 0.992203 0.104404   
     length 1.39452   
     axis 0 0 0   XYZ
    dof rx ry rz
    limits (-20.0 45.0)
           (-30.0 30.0)
           (-30.0 30.0)
  end
  begin
     id 16
     name head
     direction 0.0242216 0.999358 0.0264054  
     length 1.40433  
     axis 0 0 0   XYZ
    dof rx ry rz
    limits (-20.0 45.0)
           (-30.0 30.0)
           (-30.0 30.0)
  end
  begin
     id 17 
     name lclavicle
     direction 0.929368 0.362991 -0.0671771  
     length 3.04887  
     axis 0 0 0   XYZ
    dof ry rz
    limits (-20.0 10.0)
           (0.0 20.0)
  end
  begin
     id 18 
     name lhumerus
     direction 1 -4.48967e-011 -7.13741e-028   
     length 4.77195   
     axis -180 -30 -90   XYZ
    dof rx ry rz
    limits (-60.0 90.0)
           (-90.0 90.0)
           (-90.0 90.0)
  end
  begin
     id 19
     name lradius
     direction 1 -4.48977e-011 3.60404e-027   
     length 2.98444   
     axis -180 -30 -90   XYZ
    dof rx
    limits (-10.0 170.0)
  end
  begin
     id 20
     name lwrist
     direction 1 -4.48997e-011 7.54877e-027   
     length 1.49222   
     axis -7.18178e-015 90 90   XYZ
    dof ry
    limits (-180.0 0.0)
 end
  begin
     id 21 
     name lhand
     direction 1 -4.489e-011 1.51105e-026   
     length 0.992285   
     axis -9.63605e-015 90 90   XYZ
    dof rx rz
    limits (-90.0 90.0)
           (-45.0 45.0)
  end
  begin
     id 22 
     name lfingers
     direction 1 -4.48998e-011 3.01948e-026   
     length 0.800006   
     axis -1.92718e-014 90 90   XYZ
    dof rx
    limits (0.0 90.0)
  end
  begin
     id 23
     name lthumb
     direction 0.707107 -6.34881e-011 0.707107   
     length 1.14865   
     axis -90 45 -3.53137e-014   XYZ
    dof rx rz
    limits (-45.0 45.0)
           (-45.0 45.0)
  end
  begin
     id 24 
     name rclavicle
     direction -0.945672 0.324529 0.0196374   
     length 3.4236  
     axis 0 0 0   XYZ 
    dof ry rz
    limits (-10.0 20.0)
           (-20.0 0.0)
  end
  begin
     id 25 
     name rhumerus
     direction -1 -4.4896e-011 1.02757e-029  
     length 4.62052   
     axis -180 30 90   XYZ
    dof rx ry rz
    limits (-90.0 60.0)
           (-90.0 90.0)
           (-90.0 90.0)
  end
  begin
     id 26 
     name rradius
     direction -1 -4.48982e-011 3.85962e-027   
     length 2.95332   
     axis -180 30 90   XYZ
    dof rx
    limits (-10.0 170.0)
  end
  begin
     id 27 
     name rwrist
     direction -1 -4.48961e-011 7.55118e-027   
     length 1.47666   
     axis -7.18178e-015 -90 -90   XYZ
    dof ry
    limits (-180.0 0.0)
  end
  begin
     id 28
     name rhand
     direction -1 -4.48984e-011 1.50994e-026   
     length 0.990956   
     axis -9.63605e-015 -90 -90   XYZ
    dof rx rz
    limits (-90.0 90.0)
           (-45.0 45.0)
  end
  begin
     id 29
     name rfingers
     direction -1 -4.4892e-011 3.02158e-026   
     length 0.798934   
     axis -1.92718e-014 -90 -90   XYZ
    dof rx
    limits (0.0 90.0)
  end
  begin
     id 30
     name rthumb
     direction -0.707107 -6.34916e-011 0.707107   
     length 1.14711   
     axis -90 -45 3.53137e-014   XYZ
    dof rx rz
    limits (-45.0 45.0)
           (-45.0 45.0)
  end
:hierarchy
  begin
    root lhipjoint rhipjoint lowerback
    lhipjoint lfemur
    lfemur ltibia
    ltibia lfoot
    lfoot ltoes
    rhipjoint rfemur
    rfemur rtibia
    rtibia rfoot
    rfoot rtoes
    lowerback upperback
    upperback thorax
    thorax lowerneck lclavicle rclavicle
    lowerneck upperneck
    upperneck head
    lclavicle lhumerus
    lhumerus lradius
    lradius lwrist
    lwrist lhand lthumb
    lhand lfingers
    rclavicle rhumerus
    rhumerus rradius
    rradius rwrist
    rwrist rhand rthumb
    rhand rfingers
  end

#!OML:ASF H:\ManfredObstacles\Project 1\Capture day 1\Session 1\Male.ASF
:FULLY-SPECIFIED
:DEGREES
67
root 1.22311 16.1886 29.7231 -169.417 -6.49809 -179.528
lowerback -7.21189 -1.52265 -2.0118
upperback 2.05395 -1.89563 0.84968
thorax 6.29116 -1.03025 1.77911
lowerneck 1.11848 -1.44498 -5.20398
upperneck -11.3301 -1.89884 8.17311
head -3.40544 -1.30689 3.42057
rclavicle 5.75233e-015 -8.19987e-015
rhumerus -35.903 -27.0266 -73.0968
rradius 22.8601
rwrist 35.3265
rhand -2.1263 -7.89069
rfingers 7.12502
rthumb 23.5522 -36.4686
lclavicle 5.75233e-015 -8.19987e-015
lhumerus -29.0072 10.2464 84.1727
lradius 23.2549
lwrist -24.5316
lhand -8.48266 8.02869
lfingers 7.12502
lthumb 17.4444 37.266
rfemur -19.0868 -4.86355 24.9752
rtibia 27.196
rfoot -25.477 13.0311
rtoes 13.4593
lfemur -36.0294 -4.89771 -16.4433
ltibia 46.6619
lfoot -5.75248 3.23397
ltoes 1.20711
68
root 1.22701 16.1886 29.5728 -169.445 -6.21878 -179.535
lowerback -7.14246 -1.40706 -1.91042
upperback 2.08889 -1.74074 0.665496
thorax 6.27112 -0.946183 1.55057
lowerneck 0.99306 -1.47271 -5.09767
upperneck -11.1141 -1.92831 8.17872
head -3.31882 -1.3179 3.39976
rclavicle 1.19271e-014 -9.93923e-016
rhumerus -35.7208 -26.5561 -73.8098
rradius 23.078
rwrist 35.0794
rhand -2.25535 -7.57337
rfingers 7.12502
rthumb 23.4285 -36.1671
lclavicle 1.19271e-014 -9.93923e-016
lhumerus -29.1494 10.6881 83.5587
lradius 22.9841
lwrist -25.0055
lhand -8.37852 8.13876
lfingers 7.12502
lthumb 17.5446 37.3671
rfemur -18.3712 -4.87956 25.0035
rtibia 26.9602
rfoot -25.7117 12.9156
rtoes 13.3809
lfemur -36.3944 -4.99425 -16.1668
ltibia 43.2194
lfoot -5.79843 2.61001
ltoes 2.19922
69
root 1.22579 16.1898 29.4189 -169.322 -5.97798 -179.618
lowerback -7.274 -1.31163 -1.88002
upperback 2.0977 -1.60266 0.492016
thorax 6.34333 -0.873614 1.36696
lowerneck 1.08321 -1.47475 -5.1564
upperneck -11.1124 -1.92627 8.24998
head -3.3317 -1.31772 3.43242
rclavicle -2.59662e-014 -6.95746e-016
rhumerus -35.4783 -26.2247 -74.4118
rradius 23.2122
rwrist 34.9339
rhand -2.28664 -7.52289
rfingers 7.12502
rthumb 23.3984 -36.1205
lclavicle -2.59662e-014 -6.95746e-016
lhumerus -29.3132 11.0746 83.032
lradius 22.6939
lwrist -25.374
lhand -8.54046 8.26293
lfingers 7.12502
lthumb 17.3887 37.5051
rfemur -17.6652 -4.95802 24.9276
rtibia 26.4826
rfoot -25.5217 13.1546
rtoes 14.1865
lfemur -36.8271 -5.24734 -15.8971
ltibia 39.568
lfoot -5.44572 2.32701
ltoes 2.03679
70
root 1.22178 16.1886 29.2586 -169.297 -5.70135 -179.642
lowerback -7.35902 -1.2011 -1.88712
upperback 2.13349 -1.44712 0.400833
thorax 6.42122 -0.796309 1.29364
lowerneck 1.19649 -1.49409 -5.15632
upperneck -11.1288 -1.95591 8.16566
head -3.35477 -1.32788 3.40885
rclavicle -5.09386e-015 -2.68359e-015
rhumerus -35.2804 -25.8645 -74.911
rradius 23.4561
rwrist 34.6848
rhand -2.23234 -7.57553
rfingers 7.12502
rthumb 23.4505 -36.1665
lclavicle -5.09386e-015 -2.68359e-015
lhumerus -29.449 11.8755 82.5004
lradius 22.2336
lwrist -26.0821
lhand -8.79586 8.31644
lfingers 7.12502
lthumb 17.1429 37.5802
rfemur -16.7177 -4.8153 24.8514
rtibia 25.8272
rfoot -24.9488 13.531
rtoes 15.4419
lfemur -36.9603 -5.40873 -15.6136
ltibia 35.8073
lfoot -4.74636 2.03587
ltoes 0.678163
71
root 1.21432 16.1933 29.0893 -169.293 -5.40876 -179.771
lowerback -7.40548 -1.1548 -2.04208
upperback 2.12559 -1.36608 0.352539
thorax 6.43918 -0.761567 1.34
lowerneck 1.28023 -1.44964 -5.23583
upperneck -11.0853 -1.90622 8.00284
head -3.36083 -1.28837 3.37074
rclavicle 2.9122e-014 3.18055e-015
rhumerus -35.1171 -25.0861 -75.4183
rradius 23.7789
rwrist 34.1478
rhand -2.04707 -7.60478
rfingers 7.12502
rthumb 23.6283 -36.1729
lclavicle 2.9122e-014 3.18055e-015
lhumerus -29.7329 13.1277 81.8646
lradius 21.7513
lwrist -26.8348
lhand -8.78384 8.36884
lfingers 7.12502
lthumb 17.1545 37.6316
rfemur -15.6166 -4.69765 24.6431
rtibia 25.0155
rfoot -24.8661 14.2197
rtoes 19.1615
lfemur -36.8686 -5.27421 -15.6222
ltibia 32.0534
lfoot -3.32372 1.41783
ltoes 0.00260013
72
root 1.20436 16.2033 28.9143 -169.158 -5.16469 -180.03
lowerback -7.55505 -1.13353 -2.3053
upperback 2.03451 -1.30201 0.252079
thorax 6.43011 -0.737067 1.38963
lowerneck 1.30253 -1.3604 -5.40554
upperneck -10.9946 -1.78782 8.00233
head -3.34381 -1.218 3.39412
rclavicle -1.30204e-014 3.97569e-016
rhumerus -35.0531 -24.268 -75.909
rradius 24.0622
rwrist 33.5479
rhand -1.88924 -7.6381
rfingers 7.12502
rthumb 23.7796 -36.1866
lclavicle -1.30204e-014 3.97569e-016
lhumerus -30.1519 14.3928 81.1535
lradius 21.3257
lwrist -27.5192
lhand -8.69198 8.45367
lfingers 7.12502
lthumb 17.2429 37.7087
rfemur -14.5639 -4.6217 24.3
rtibia 24.0753
rfoot -24.6354 14.7546
rtoes 22.0825
lfemur -36.8517 -4.94409 -15.895
ltibia 28.4262
lfoot -1.13121 0.462724
ltoes 0.541561
73
root 1.19436 16.2087 28.7335 -169.09 -4.97258 -180.05
lowerback -7.69182 -1.04244 -2.33498
upperback 1.95786 -1.16976 0.179585
thorax 6.42057 -0.670652 1.34656
lowerneck 1.32377 -1.33125 -5.5068
upperneck -10.9354 -1.74279 8.09769
head -3.33033 -1.19355 3.43821
rclavicle 8.24956e-015 5.56597e-015
rhumerus -35.0745 -23.8502 -76.2461
rradius 24.2245
rwrist 33.2925
rhand -1.87039 -7.49407
rfingers 7.12502
rthumb 23.7977 -36.0402
lclavicle 8.24956e-015 5.56597e-015
lhumerus -30.5044 15.4263 80.467
lradius 20.817
lwrist -28.2111
lhand -8.68309 8.50339
lfingers 7.12502
lthumb 17.2515 37.7577
rfemur -13.4062 -4.43099 24.2204
rtibia 23.0693
rfoot -24.3646 15.2245
rtoes 24.7561
lfemur -36.73 -4.32782 -16.0511
ltibia 25.0153
lfoot 1.35187 -0.944037
ltoes 1.22013
